<svg width="429" height="64" viewBox="0 0 429 64" fill="none" xmlns="http://www.w3.org/2000/svg">
    <g clip-path="url(#clip0_14_96)">
        <path d="M31.6772 63.3544C25.4121 63.3544 19.2876 61.4966 14.0783 58.0159C8.86902 54.5351 4.80887 49.5878 2.4113 43.7996C0.013725 38.0113 -0.613589 31.6421 0.608683 25.4973C1.83096 19.3525 4.84792 13.7082 9.27806 9.27804C13.7082 4.8479 19.3525 1.83094 25.4973 0.608668C31.6421 -0.613604 38.0113 0.0137095 43.7996 2.41128C49.5878 4.80886 54.5351 8.869 58.0159 14.0783C61.4966 19.2876 63.3544 25.4121 63.3544 31.6772C63.3452 40.0757 60.0049 48.1276 54.0662 54.0662C48.1276 60.0048 40.0757 63.3452 31.6772 63.3544ZM31.6772 2.08861C25.8252 2.08861 20.1045 3.82395 15.2387 7.07519C10.3729 10.3264 6.58041 14.9475 4.34092 20.3541C2.10143 25.7608 1.51548 31.71 2.65716 37.4497C3.79884 43.1893 6.61688 48.4615 10.7549 52.5995C14.893 56.7376 20.1652 59.5556 25.9048 60.6973C31.6444 61.839 37.5937 61.253 43.0003 59.0135C48.4069 56.774 53.028 52.9816 56.2793 48.1158C59.5305 43.2499 61.2658 37.5293 61.2658 31.6772C61.2566 23.8327 58.1363 16.312 52.5894 10.7651C47.0424 5.21814 39.5218 2.09782 31.6772 2.08861Z" fill="url(#paint0_linear_14_96)"/>
        <path d="M30.1177 59.9987H30.062C29.331 59.957 28.6 59.8873 27.876 59.7899C27.7396 59.7719 27.6082 59.7271 27.4891 59.6582C27.3701 59.5893 27.2659 59.4975 27.1825 59.3882C27.099 59.2788 27.038 59.1541 27.0029 59.0211C26.9678 58.8882 26.9593 58.7496 26.9779 58.6133C26.995 58.4775 27.0389 58.3464 27.1073 58.2278C27.1756 58.1091 27.2668 58.0053 27.3757 57.9223C27.4846 57.8394 27.6089 57.7789 27.7415 57.7446C27.874 57.7102 28.012 57.7026 28.1475 57.7221C28.8437 57.8057 29.5051 57.8753 30.1804 57.9101C30.4574 57.9184 30.7197 58.0364 30.9097 58.2381C31.0996 58.4399 31.2017 58.7088 31.1934 58.9858C31.1851 59.2627 31.0671 59.525 30.8653 59.715C30.6636 59.905 30.3947 60.007 30.1177 59.9987ZM34.3507 59.9152C34.0737 59.9281 33.8029 59.8305 33.5979 59.6438C33.393 59.4571 33.2705 59.1966 33.2576 58.9196C33.2447 58.6426 33.3423 58.3719 33.529 58.1669C33.7157 57.9619 33.9762 57.8395 34.2532 57.8266C34.9494 57.7639 35.6038 57.6734 36.2722 57.5551C36.4093 57.5313 36.5498 57.5348 36.6856 57.5653C36.8214 57.5958 36.9498 57.6528 37.0636 57.7329C37.1774 57.8131 37.2743 57.9149 37.3487 58.0325C37.4232 58.1501 37.4737 58.2812 37.4975 58.4184C37.5213 58.5555 37.5178 58.696 37.4873 58.8318C37.4567 58.9676 37.3998 59.096 37.3196 59.2098C37.2394 59.3236 37.1377 59.4205 37.0201 59.4949C36.9024 59.5693 36.7713 59.6199 36.6342 59.6437C35.938 59.7759 35.1791 59.8734 34.4551 59.943L34.3507 59.9152ZM23.9076 58.9127C23.8064 58.9125 23.7057 58.8984 23.6082 58.8709C22.912 58.662 22.2158 58.4183 21.5196 58.1747C21.2611 58.075 21.0528 57.8767 20.9405 57.6234C20.8283 57.3701 20.8212 57.0825 20.9209 56.824C21.0206 56.5655 21.2189 56.3572 21.4722 56.245C21.7255 56.1327 22.013 56.1256 22.2715 56.2253C22.8981 56.469 23.5456 56.6848 24.1931 56.8797C24.4344 56.9501 24.6422 57.1052 24.7784 57.3165C24.9146 57.5278 24.97 57.7811 24.9345 58.03C24.8989 58.2788 24.7748 58.5065 24.5849 58.6712C24.395 58.8359 24.152 58.9266 23.9007 58.9266L23.9076 58.9127ZM40.6165 58.5715C40.3687 58.5726 40.1285 58.4856 39.939 58.3259C39.7495 58.1663 39.6229 57.9444 39.5819 57.7C39.5409 57.4557 39.5881 57.2046 39.7151 56.9919C39.8422 56.7791 40.0407 56.6184 40.2753 56.5386C40.9158 56.3158 41.5563 56.0721 42.176 55.8006C42.4215 55.7372 42.6817 55.7653 42.9081 55.8796C43.1344 55.994 43.3114 56.1868 43.406 56.4221C43.5007 56.6574 43.5064 56.919 43.4223 57.1583C43.3381 57.3975 43.1698 57.5979 42.9488 57.7221C42.2525 58.0076 41.5912 58.2791 40.895 58.5158C40.7848 58.5519 40.6697 58.5707 40.5538 58.5715H40.6165ZM18.0456 56.3924C17.8625 56.3916 17.6826 56.3437 17.5234 56.2532C16.8829 55.8842 16.2633 55.4873 15.6576 55.0766C15.5399 55.0009 15.4385 54.9024 15.3596 54.7869C15.2807 54.6713 15.2258 54.5411 15.1982 54.4039C15.1706 54.2667 15.1709 54.1254 15.199 53.9883C15.2271 53.8512 15.2824 53.7211 15.3618 53.6059C15.4411 53.4906 15.5428 53.3924 15.6608 53.3172C15.7788 53.242 15.9108 53.1913 16.0488 53.1681C16.1868 53.1449 16.328 53.1496 16.4641 53.1821C16.6003 53.2145 16.7285 53.274 16.8412 53.357C17.3981 53.7399 17.976 54.1019 18.5677 54.443C18.7672 54.5578 18.9231 54.7353 19.0113 54.9478C19.0995 55.1603 19.115 55.396 19.0555 55.6183C18.996 55.8406 18.8647 56.0369 18.6821 56.1769C18.4994 56.3169 18.2757 56.3927 18.0456 56.3924ZM46.2696 55.8145C46.0488 55.8061 45.8363 55.7277 45.6628 55.5908C45.4892 55.4539 45.3636 55.2654 45.304 55.0526C45.2444 54.8397 45.2539 54.6135 45.3311 54.4063C45.4083 54.1992 45.5492 54.0219 45.7336 53.9C46.3114 53.538 46.8753 53.1481 47.4114 52.7443C47.6339 52.5781 47.9133 52.5071 48.1881 52.547C48.463 52.5868 48.7107 52.7341 48.8769 52.9566C49.0431 53.1791 49.1141 53.4585 49.0743 53.7334C49.0344 54.0082 48.8871 54.256 48.6646 54.4221C48.0798 54.8538 47.4741 55.2785 46.8544 55.6683C46.6785 55.7758 46.4758 55.8313 46.2696 55.8285V55.8145ZM12.9494 52.619C12.6895 52.6157 12.4406 52.5136 12.2532 52.3335C11.7241 51.8323 11.2019 51.3101 10.7146 50.7671C10.558 50.5585 10.4851 50.2988 10.5103 50.0392C10.5355 49.7796 10.6569 49.5388 10.8507 49.3642C11.0445 49.1896 11.2966 49.0939 11.5575 49.0958C11.8183 49.0977 12.069 49.1972 12.2601 49.3747C12.7127 49.8759 13.1931 50.3633 13.6874 50.8297C13.838 50.9721 13.9429 51.1561 13.9887 51.3582C14.0345 51.5604 14.019 51.7716 13.9444 51.965C13.8697 52.1583 13.7392 52.3251 13.5694 52.444C13.3997 52.563 13.1984 52.6287 12.9912 52.6329L12.9494 52.619ZM51.1988 51.8392C50.9371 51.8315 50.6882 51.7245 50.5025 51.5399C50.307 51.3441 50.1971 51.0786 50.1971 50.8019C50.1971 50.5252 50.307 50.2597 50.5025 50.0639C50.976 49.5766 51.4355 49.0683 51.895 48.5532C52.0731 48.3408 52.3284 48.208 52.6045 48.1838C52.8807 48.1596 53.1551 48.2462 53.3674 48.4244C53.5798 48.6025 53.7126 48.8578 53.7368 49.1339C53.7609 49.4101 53.6744 49.6845 53.4962 49.8968C53.0228 50.4538 52.5285 51.0038 52.0133 51.5259C51.9087 51.6346 51.7816 51.719 51.6408 51.7731C51.5001 51.8272 51.3492 51.8498 51.1988 51.8392ZM8.83483 47.7665C8.66243 47.7671 8.49259 47.7248 8.34064 47.6434C8.1887 47.562 8.05945 47.4439 7.96458 47.3C7.56078 46.6943 7.17787 46.0608 6.8228 45.4202C6.74638 45.3 6.69537 45.1654 6.67291 45.0247C6.65046 44.884 6.65702 44.7402 6.69221 44.6021C6.72741 44.4641 6.79047 44.3347 6.87754 44.2219C6.96461 44.1091 7.07383 44.0154 7.19848 43.9464C7.32314 43.8774 7.4606 43.8346 7.60239 43.8208C7.74419 43.8069 7.88732 43.8221 8.023 43.8656C8.15867 43.9091 8.284 43.9799 8.39129 44.0737C8.49858 44.1674 8.58555 44.2821 8.64685 44.4108C8.98103 45.0025 9.34306 45.5873 9.70508 46.1513C9.78101 46.2655 9.83367 46.3936 9.86007 46.5283C9.88647 46.6629 9.88608 46.8014 9.85892 46.9359C9.83177 47.0704 9.77838 47.1982 9.70181 47.312C9.62524 47.4259 9.52699 47.5235 9.41268 47.5994C9.23948 47.708 9.03928 47.7659 8.83483 47.7665ZM55.0627 46.8266C54.8708 46.8278 54.6826 46.7747 54.5196 46.6734C54.2921 46.5249 54.131 46.294 54.07 46.0292C54.009 45.7644 54.0528 45.4863 54.1924 45.2532C54.5475 44.6753 54.8886 44.0766 55.181 43.4709C55.2427 43.3484 55.328 43.2392 55.4319 43.1496C55.5358 43.0601 55.6563 42.9918 55.7866 42.9489C55.9168 42.9059 56.0543 42.889 56.1911 42.8991C56.3279 42.9092 56.4614 42.9462 56.5839 43.0079C56.7064 43.0696 56.8156 43.1549 56.9051 43.2588C56.9947 43.3627 57.0629 43.4832 57.1059 43.6134C57.1489 43.7437 57.1658 43.8812 57.1557 44.018C57.1455 44.1548 57.1086 44.2882 57.0469 44.4108C56.7196 45.0582 56.3507 45.7057 55.9817 46.3392C55.8864 46.4891 55.7547 46.6124 55.5989 46.6977C55.443 46.7829 55.2681 46.8272 55.0905 46.8266H55.0627ZM6.00128 42.1133C5.78607 42.1117 5.57653 42.0441 5.40098 41.9195C5.22543 41.795 5.09232 41.6197 5.01964 41.4171C4.76901 40.7209 4.54622 40.0247 4.32344 39.3285C4.24928 39.0654 4.2805 38.7838 4.41047 38.5434C4.54043 38.3029 4.75893 38.1226 5.01964 38.0405C5.28275 37.9626 5.56601 37.9921 5.80741 38.1226C6.0488 38.2531 6.22866 38.4739 6.30761 38.7367C6.48863 39.3842 6.70445 40.0316 6.9342 40.6721C6.98189 40.8006 7.00368 40.9371 6.99832 41.074C6.99295 41.2109 6.96052 41.3453 6.90292 41.4696C6.84531 41.5939 6.76366 41.7055 6.66268 41.7981C6.5617 41.8906 6.44339 41.9623 6.31458 42.0089C6.21719 42.062 6.11109 42.0974 6.00128 42.1133ZM57.7152 41.0759C57.5472 41.0777 57.3813 41.0389 57.2315 40.9629C57.0817 40.8868 56.9524 40.7758 56.8547 40.6391C56.757 40.5024 56.6937 40.3442 56.6702 40.1778C56.6467 40.0115 56.6636 39.8419 56.7196 39.6835C56.9285 39.043 57.1095 38.3816 57.2627 37.7272C57.2942 37.5937 57.3517 37.4678 57.432 37.3565C57.5122 37.2453 57.6135 37.1509 57.7302 37.0788C57.8469 37.0067 57.9767 36.9583 58.1121 36.9364C58.2475 36.9145 58.3858 36.9194 58.5193 36.9509C58.6528 36.9825 58.7788 37.04 58.89 37.1202C59.0013 37.2005 59.0956 37.3018 59.1677 37.4185C59.2398 37.5352 59.2882 37.6649 59.3101 37.8003C59.3321 37.9357 59.3271 38.0741 59.2956 38.2076C59.1285 38.9038 58.9336 39.6 58.7108 40.2962C58.654 40.5177 58.5256 40.7143 58.3455 40.8553C58.1655 40.9963 57.9439 41.0739 57.7152 41.0759ZM4.5323 35.9449C4.27586 35.9449 4.02842 35.8505 3.83711 35.6797C3.64581 35.5089 3.52402 35.2738 3.49495 35.019C3.41141 34.3228 3.35571 33.5639 3.3209 32.8259C3.30983 32.549 3.40923 32.279 3.59724 32.0753C3.78525 31.8716 4.04647 31.7509 4.32344 31.7399C4.6004 31.7288 4.87043 31.8282 5.07411 32.0162C5.27778 32.2042 5.39843 32.4654 5.40951 32.7424C5.40951 33.4386 5.49306 34.1348 5.56964 34.7753C5.58617 34.9115 5.57569 35.0497 5.5388 35.1819C5.5019 35.3141 5.43931 35.4377 5.35461 35.5457C5.26991 35.6537 5.16475 35.7439 5.04516 35.8112C4.92556 35.8785 4.79387 35.9216 4.65761 35.938L4.5323 35.9449ZM58.9614 34.8101H58.8779C58.6026 34.787 58.3474 34.6565 58.1676 34.4467C57.9878 34.2369 57.8978 33.9648 57.9171 33.6892C57.9658 32.993 57.9937 32.3316 57.9937 31.6494V31.531C57.9937 31.254 58.1037 30.9884 58.2996 30.7926C58.4954 30.5967 58.761 30.4867 59.038 30.4867C59.315 30.4867 59.5806 30.5967 59.7764 30.7926C59.9723 30.9884 60.0823 31.254 60.0823 31.531V31.6494C60.0823 32.3804 60.0823 33.1183 59.9988 33.8494C59.9778 34.1104 59.8595 34.354 59.6674 34.532C59.4753 34.7099 59.2233 34.8092 58.9614 34.8101ZM4.51837 29.5956H4.40002C4.2641 29.5808 4.13244 29.5394 4.01259 29.4736C3.89274 29.4078 3.78708 29.319 3.70168 29.2123C3.61628 29.1055 3.55282 28.9829 3.51495 28.8516C3.47708 28.7202 3.46556 28.5827 3.48103 28.4468C3.56458 27.7158 3.67597 26.9848 3.81521 26.2677C3.83399 26.1266 3.88141 25.9908 3.95457 25.8687C4.02773 25.7466 4.12508 25.6408 4.24064 25.5577C4.3562 25.4746 4.48753 25.4159 4.62657 25.3854C4.7656 25.3549 4.90941 25.3532 5.04915 25.3803C5.18889 25.4074 5.32162 25.4627 5.43918 25.543C5.55674 25.6232 5.65666 25.7267 5.73278 25.847C5.80891 25.9672 5.85965 26.1018 5.88188 26.2424C5.90411 26.383 5.89736 26.5267 5.86204 26.6646C5.73673 27.3608 5.6323 28.0082 5.55571 28.6766C5.52507 28.9301 5.4026 29.1636 5.21145 29.3329C5.02031 29.5023 4.77374 29.5957 4.51837 29.5956ZM58.669 28.3702C58.4201 28.3699 58.1794 28.2806 57.9905 28.1185C57.8016 27.9563 57.6768 27.7321 57.6386 27.4861C57.5342 26.8247 57.395 26.1494 57.2418 25.4949C57.2005 25.359 57.1874 25.2161 57.2032 25.075C57.219 24.9339 57.2635 24.7974 57.3339 24.6741C57.4042 24.5507 57.499 24.443 57.6124 24.3575C57.7258 24.272 57.8555 24.2105 57.9935 24.1769C58.1315 24.1432 58.2749 24.138 58.4149 24.1617C58.5549 24.1853 58.6887 24.2373 58.808 24.3144C58.9272 24.3915 59.0295 24.4921 59.1086 24.6101C59.1876 24.7281 59.2418 24.861 59.2677 25.0006C59.4418 25.6968 59.588 26.4418 59.6994 27.1589C59.7212 27.2947 59.716 27.4334 59.684 27.5672C59.652 27.701 59.5939 27.8271 59.5131 27.9384C59.4322 28.0497 59.3302 28.1439 59.2128 28.2156C59.0954 28.2873 58.965 28.3351 58.8291 28.3563L58.669 28.3702ZM5.95951 23.4202C5.83844 23.4198 5.71835 23.3986 5.60445 23.3576C5.34417 23.2633 5.13197 23.0696 5.01447 22.8189C4.89698 22.5683 4.88381 22.2812 4.97787 22.0209C5.22154 21.3247 5.50002 20.6285 5.80635 19.981C5.86007 19.8517 5.93924 19.7346 6.03915 19.6365C6.13905 19.5384 6.25766 19.4615 6.38791 19.4101C6.51816 19.3588 6.6574 19.3342 6.79735 19.3378C6.9373 19.3414 7.0751 19.373 7.20257 19.4309C7.33003 19.4888 7.44455 19.5718 7.53933 19.6748C7.6341 19.7779 7.70718 19.8989 7.75424 20.0307C7.80129 20.1626 7.82136 20.3026 7.81324 20.4423C7.80512 20.5821 7.76899 20.7188 7.70698 20.8443C7.4285 21.4639 7.1709 22.0975 6.94116 22.731C6.86906 22.9334 6.73589 23.1084 6.56005 23.2319C6.38421 23.3554 6.17437 23.4212 5.95951 23.4202ZM56.9494 22.2785C56.742 22.2788 56.5393 22.2174 56.3669 22.1021C56.1946 21.9868 56.0605 21.8228 55.9817 21.631C55.7241 21.0114 55.4386 20.3848 55.1323 19.7861C55.0674 19.664 55.0271 19.5304 55.0139 19.3928C55.0006 19.2552 55.0146 19.1163 55.055 18.9841C55.1366 18.7171 55.3209 18.4934 55.5674 18.3623C55.8139 18.2312 56.1024 18.2034 56.3694 18.285C56.6364 18.3666 56.8601 18.551 56.9912 18.7975C57.3253 19.4449 57.6317 20.1202 57.9101 20.7956C57.967 20.9237 57.9976 21.062 57.9999 21.2021C58.0022 21.3423 57.9763 21.4815 57.9237 21.6114C57.871 21.7414 57.7928 21.8594 57.6936 21.9584C57.5944 22.0575 57.4762 22.1355 57.3462 22.188C57.2215 22.245 57.0865 22.2758 56.9494 22.2785ZM8.83483 17.7462C8.63128 17.7475 8.43216 17.6868 8.26394 17.5721C8.14874 17.498 8.04936 17.4018 7.97153 17.2891C7.8937 17.1764 7.83897 17.0494 7.81049 16.9154C7.78201 16.7814 7.78034 16.6431 7.8056 16.5085C7.83085 16.3739 7.88251 16.2456 7.95761 16.131C8.36141 15.5184 8.78609 14.9127 9.23166 14.3348C9.40154 14.1151 9.65174 13.9718 9.92723 13.9366C10.2027 13.9013 10.4809 13.977 10.7007 14.1468C10.9204 14.3167 11.0636 14.5669 11.0989 14.8424C11.1341 15.1179 11.0585 15.3961 10.8886 15.6158C10.4779 16.1519 10.0741 16.7089 9.70508 17.2728C9.61056 17.4176 9.48156 17.5366 9.32967 17.6193C9.17777 17.7019 9.00774 17.7455 8.83483 17.7462ZM53.8582 16.7089C53.6928 16.7083 53.5297 16.669 53.3822 16.594C53.2347 16.5191 53.1069 16.4106 53.0089 16.2772C52.612 15.7202 52.1874 15.1842 51.7557 14.669C51.667 14.5643 51.5998 14.4432 51.558 14.3125C51.5161 14.1819 51.5004 14.0442 51.5117 13.9075C51.523 13.7708 51.5611 13.6376 51.6239 13.5156C51.6867 13.3936 51.7729 13.2852 51.8775 13.1965C52.089 13.0174 52.3629 12.9296 52.639 12.9525C52.7758 12.9638 52.9089 13.0019 53.0309 13.0647C53.1529 13.1275 53.2613 13.2137 53.35 13.3183C53.8165 13.8753 54.276 14.4532 54.7007 15.0519C54.7817 15.1623 54.84 15.2877 54.8723 15.4208C54.9046 15.5539 54.9103 15.692 54.8889 15.8273C54.8675 15.9626 54.8196 16.0923 54.7479 16.2089C54.6761 16.3256 54.582 16.4269 54.4709 16.507C54.2938 16.6385 54.0789 16.7094 53.8582 16.7089ZM12.8658 12.8797C12.6586 12.8756 12.4573 12.8098 12.2875 12.6909C12.1178 12.5719 11.9873 12.4052 11.9126 12.2118C11.838 12.0184 11.8225 11.8072 11.8683 11.6051C11.9141 11.4029 12.019 11.2189 12.1696 11.0766C12.6988 10.5683 13.2557 10.081 13.8196 9.62151C13.9227 9.51275 14.0479 9.42743 14.1868 9.37134C14.3257 9.31524 14.4751 9.28969 14.6247 9.29642C14.7744 9.30315 14.9208 9.342 15.0542 9.41034C15.1875 9.47867 15.3045 9.57489 15.3974 9.69246C15.4902 9.81003 15.5567 9.9462 15.5922 10.0917C15.6278 10.2373 15.6317 10.3887 15.6035 10.5359C15.5754 10.683 15.5159 10.8224 15.4291 10.9445C15.3424 11.0666 15.2303 11.1687 15.1007 11.2437C14.5785 11.6683 14.0633 12.1209 13.569 12.5873C13.3806 12.771 13.129 12.8756 12.8658 12.8797ZM49.5766 12.0513C49.3215 12.0498 49.075 11.9586 48.8804 11.7937C48.3791 11.3481 47.8431 10.9234 47.2931 10.5196C47.0719 10.3533 46.9253 10.1066 46.8849 9.83293C46.8445 9.55924 46.9136 9.28066 47.0772 9.05759C47.2408 8.8394 47.4838 8.69441 47.7535 8.65402C48.0232 8.61363 48.298 8.68108 48.5184 8.84177C49.1101 9.27341 49.681 9.73987 50.231 10.2342C50.3945 10.3739 50.5108 10.5606 50.5641 10.7689C50.6175 10.9772 50.6052 11.1968 50.5291 11.3979C50.4529 11.599 50.3166 11.7716 50.1386 11.8923C49.9607 12.013 49.7498 12.0758 49.5348 12.0721L49.5766 12.0513ZM17.9412 9.05063C17.7105 9.05244 17.4857 8.9778 17.3018 8.83837C17.118 8.69894 16.9856 8.50256 16.9251 8.27991C16.8647 8.05726 16.8797 7.82086 16.9678 7.60764C17.0559 7.39441 17.2121 7.21635 17.412 7.10126C18.0526 6.73227 18.7 6.40506 19.3544 6.07088C19.4779 6.011 19.6119 5.97601 19.7488 5.96792C19.8858 5.95982 20.023 5.97878 20.1526 6.02371C20.2822 6.06865 20.4017 6.13867 20.5043 6.22978C20.6068 6.32089 20.6905 6.43132 20.7503 6.55474C20.8102 6.67817 20.8452 6.81218 20.8533 6.94913C20.8614 7.08608 20.8424 7.22328 20.7975 7.3529C20.7526 7.48252 20.6826 7.60202 20.5914 7.70458C20.5003 7.80714 20.3899 7.89074 20.2665 7.95063C19.6608 8.24303 19.0551 8.56329 18.4633 8.91139C18.3041 9.00191 18.1243 9.04987 17.9412 9.05063ZM44.3412 8.47278C44.1713 8.47495 44.0037 8.43424 43.8538 8.35443C43.262 8.04113 42.6424 7.74873 42.0158 7.48417C41.8781 7.43933 41.7513 7.36633 41.6433 7.26981C41.5353 7.1733 41.4486 7.05538 41.3886 6.92355C41.3287 6.79172 41.2968 6.64886 41.295 6.50404C41.2932 6.35923 41.3216 6.21563 41.3783 6.08236C41.435 5.9491 41.5188 5.82908 41.6243 5.72994C41.7299 5.6308 41.855 5.5547 41.9915 5.50648C42.1281 5.45826 42.2732 5.43897 42.4176 5.44984C42.562 5.46071 42.7026 5.5015 42.8304 5.56962C43.5266 5.85506 44.1741 6.17531 44.8146 6.50949C45.0175 6.61892 45.1786 6.79245 45.2726 7.00302C45.3666 7.21359 45.3883 7.44934 45.3342 7.67351C45.2801 7.89768 45.1534 8.09766 44.9738 8.24224C44.7941 8.38682 44.5717 8.46789 44.3412 8.47278ZM23.7544 6.53734C23.5065 6.53364 23.2679 6.44181 23.0814 6.27827C22.895 6.11473 22.7728 5.89017 22.7368 5.64478C22.7008 5.3994 22.7533 5.1492 22.8849 4.93899C23.0165 4.72877 23.2186 4.57226 23.4551 4.49746C24.1513 4.2886 24.8475 4.10063 25.5437 3.9405C25.8142 3.88049 26.0975 3.9304 26.3312 4.07924C26.5649 4.22808 26.7299 4.46367 26.7899 4.73417C26.8499 5.00468 26.8 5.28794 26.6512 5.52165C26.5023 5.75536 26.2667 5.92037 25.9962 5.98038C25.3 6.12658 24.6665 6.30063 24.019 6.49557C23.9328 6.52015 23.844 6.53417 23.7544 6.53734ZM38.3747 6.21012C38.29 6.20879 38.2059 6.1971 38.1241 6.17531C37.4279 6.00822 36.7943 5.86898 36.126 5.75063C35.984 5.73542 35.8466 5.69125 35.7223 5.62085C35.5981 5.55045 35.4896 5.45531 35.4036 5.34132C35.3176 5.22732 35.2558 5.09689 35.2222 4.9581C35.1886 4.8193 35.1838 4.67508 35.2081 4.53436C35.2325 4.39364 35.2854 4.2594 35.3637 4.13994C35.4419 4.02049 35.5439 3.91836 35.6632 3.83986C35.7825 3.76136 35.9166 3.70817 36.0573 3.68357C36.1979 3.65897 36.3422 3.66348 36.481 3.69683C37.1772 3.82215 37.9222 3.97531 38.6323 4.14936C38.7694 4.16628 38.9019 4.21004 39.0221 4.27814C39.1424 4.34625 39.248 4.43737 39.333 4.54631C39.418 4.65524 39.4807 4.77985 39.5176 4.91302C39.5545 5.0462 39.5647 5.18532 39.5478 5.32246C39.5309 5.4596 39.4871 5.59207 39.419 5.7123C39.3509 5.83253 39.2598 5.93816 39.1509 6.02317C39.0419 6.10819 38.9173 6.17091 38.7841 6.20777C38.651 6.24462 38.5118 6.25488 38.3747 6.23797V6.21012ZM29.9994 5.42341C29.7224 5.43172 29.4535 5.32967 29.2518 5.1397C29.0501 4.94973 28.9321 4.68741 28.9238 4.41044C28.9154 4.13347 29.0175 3.86455 29.2075 3.66283C29.3974 3.46111 29.6598 3.34311 29.9367 3.33481C30.5146 3.33481 31.0994 3.29303 31.6772 3.28607H32.1298C32.4061 3.29156 32.6693 3.40569 32.8621 3.60375C33.055 3.80181 33.162 4.06786 33.1601 4.3443C33.1612 4.48226 33.1343 4.619 33.0811 4.74631C33.0279 4.87362 32.9496 4.98886 32.8507 5.0851C32.7519 5.18135 32.6346 5.25662 32.5059 5.30638C32.3772 5.35614 32.2398 5.37938 32.1019 5.37468H31.6772C31.162 5.37468 30.5981 5.37468 30.062 5.42341H29.9994Z" fill="url(#paint1_linear_14_96)"/>
        <path d="M33.3829 41.807V46.4437C33.3829 46.773 33.2526 47.0889 33.0204 47.3224C32.7882 47.5559 32.473 47.688 32.1437 47.6899C31.8132 47.6899 31.4962 47.5586 31.2625 47.3249C31.0288 47.0912 30.8975 46.7742 30.8975 46.4437V41.7165" fill="url(#paint2_linear_14_96)"/>
        <path d="M30.8975 20.531V15.8943C30.8938 15.7283 30.9233 15.5633 30.9843 15.4088C31.0452 15.2544 31.1364 15.1137 31.2525 14.995C31.3686 14.8764 31.5073 14.7821 31.6603 14.7177C31.8133 14.6533 31.9777 14.6202 32.1437 14.6203C32.473 14.6221 32.7882 14.7542 33.0204 14.9877C33.2526 15.2212 33.383 15.5371 33.383 15.8665V20.5867" fill="url(#paint3_linear_14_96)"/>
        <path d="M38.7715 24.1582C36.948 22.4547 34.5618 21.4809 32.067 21.4222C29.3967 21.4692 26.8501 22.5561 24.9687 24.4517C23.0874 26.3474 22.0198 28.9022 21.993 31.5728C22.0084 32.8495 22.278 34.1104 22.7861 35.2818C23.2941 36.4533 24.0303 37.5118 24.9519 38.3956C26.8522 40.2539 29.3762 41.3384 32.0322 41.438C34.4493 41.3542 36.7684 40.4618 38.6183 38.9038C39.1584 38.4545 39.7642 38.0905 40.4145 37.8247C41.5563 37.8247 39.4677 40.0038 39.4677 40.0038C37.4096 41.763 34.7954 42.7371 32.0879 42.7538C25.9474 42.7538 20.5936 37.6297 20.5936 31.4614C20.6339 28.4334 21.8661 25.5434 24.0229 23.4178C26.1798 21.2922 29.0876 20.1024 32.1158 20.1063C34.8381 20.1136 37.4598 21.1364 39.4677 22.9747C39.4677 22.9747 40.4493 23.9494 40.4493 24.1791C40.4145 25.3139 38.9038 24.3114 38.7715 24.1582Z" fill="url(#paint4_linear_14_96)"/>
        <path d="M32.088 43.1019C28.988 43.0845 26.017 41.8586 23.8067 39.6848C21.5965 37.511 20.3214 34.5607 20.2526 31.4614C20.2874 28.3454 21.5497 25.3689 23.7655 23.1778C25.9813 20.9868 28.9718 19.758 32.088 19.7582C34.8864 19.7701 37.5798 20.8251 39.6418 22.7171C40.7348 23.8032 40.7348 24.0677 40.7348 24.1791C40.7533 24.346 40.7197 24.5145 40.6387 24.6615C40.5577 24.8086 40.4332 24.927 40.2823 25.0006C39.5861 25.3 38.4791 24.4228 38.4722 24.4089C36.7134 22.765 34.4112 21.8257 32.0045 21.7702C29.4351 21.8263 26.9888 22.8814 25.1846 24.7116C23.3805 26.5417 22.3605 29.0029 22.3412 31.5728C22.3542 32.8033 22.6134 34.0188 23.1037 35.1476C23.5939 36.2763 24.3052 37.2955 25.1956 38.1449C27.03 39.9391 29.4679 40.9843 32.0323 41.0759C34.3655 40.9925 36.6034 40.1297 38.3886 38.6253C38.3886 38.6253 39.8715 37.4627 40.4146 37.4627C40.545 37.4471 40.6771 37.4739 40.7911 37.5391C40.9052 37.6042 40.9953 37.7044 41.0481 37.8247C41.2988 38.4025 40.4424 39.4538 39.6557 40.2335C37.5486 42.0492 34.8693 43.0647 32.088 43.1019ZM32.088 20.4544C30.313 20.4438 28.5618 20.8636 26.9846 21.6781C25.4074 22.4925 24.0512 23.6772 23.0322 25.1307C22.0132 26.5841 21.3618 28.263 21.1339 30.0234C20.9059 31.7837 21.1082 33.5731 21.7233 35.2382C22.3385 36.9033 23.3482 38.3943 24.6659 39.5837C25.9836 40.773 27.5701 41.6251 29.2893 42.0669C31.0085 42.5087 32.8092 42.5271 34.537 42.1205C36.2649 41.7139 37.8684 40.8944 39.2102 39.7323C39.67 39.2835 40.0617 38.7698 40.3728 38.2076C39.8309 38.4682 39.3196 38.7881 38.8481 39.1614C36.9339 40.7724 34.533 41.692 32.0323 41.7721C29.287 41.6781 26.6754 40.5635 24.7083 38.6462C23.7509 37.7317 22.9866 36.6345 22.4605 35.4196C21.9343 34.2047 21.657 32.8967 21.645 31.5728C21.6663 28.8141 22.764 26.1728 24.7043 24.2117C26.6446 22.2507 29.274 21.1248 32.0323 21.074C34.6233 21.1263 37.1032 22.1357 38.9943 23.9076C39.1962 24.0886 39.8924 24.4437 40.0526 24.3601C40.067 24.3007 40.067 24.2386 40.0526 24.1791C39.7774 23.8457 39.4846 23.5273 39.1753 23.2253C37.2489 21.4555 34.7318 20.4675 32.1159 20.4544H32.088Z" fill="url(#paint5_linear_14_96)"/>
        <path d="M109.836 19.5884C109.352 19.5139 108.952 19.2906 108.635 18.9183C108.319 18.5461 108.161 18.118 108.161 17.634V13.5578C108.161 12.9249 108.384 12.4224 108.831 12.0501C109.278 11.6779 109.799 11.529 110.394 11.6034C113.596 12.1246 116.444 13.26 118.938 15.0096C122.176 17.3548 124.466 20.4632 125.806 24.3347C126.029 24.9675 125.955 25.5632 125.582 26.1215C125.21 26.6799 124.67 26.9591 123.963 26.9591H119.496C119.087 26.9591 118.714 26.8568 118.379 26.652C118.044 26.4473 117.802 26.1588 117.653 25.7865C116.834 23.8508 115.587 22.3059 113.912 21.1519C112.609 20.3329 111.25 19.8117 109.836 19.5884ZM123.963 38.1269C124.67 38.1269 125.21 38.4061 125.582 38.9645C125.955 39.5229 126.029 40.1185 125.806 40.7513C124.466 44.6228 122.176 47.7312 118.938 50.0764C116.444 51.8261 113.596 52.9615 110.394 53.4826H110.115C109.594 53.4826 109.166 53.3151 108.831 52.9801C108.384 52.645 108.161 52.1611 108.161 51.5283V47.452C108.161 46.9681 108.31 46.54 108.607 46.1677C108.905 45.7955 109.296 45.5721 109.78 45.4976C111.344 45.2743 112.721 44.7531 113.912 43.9342C115.587 42.7802 116.834 41.2353 117.653 39.2995C117.802 38.9273 118.044 38.6388 118.379 38.434C118.714 38.2293 119.087 38.1269 119.496 38.1269H123.963ZM103.973 12.2735C104.457 12.6457 104.699 13.1483 104.699 13.7811V18.1366C104.699 18.5461 104.559 18.9276 104.28 19.2813C104.001 19.6349 103.656 19.8862 103.247 20.0351C102.726 20.1468 102.316 20.2771 102.018 20.426C100.529 21.096 99.2637 22.0081 98.2214 23.1621C96.0995 25.5445 95.0386 28.6622 95.0386 32.5151C95.0386 36.368 96.0995 39.5043 98.2214 41.924C99.5243 43.413 101.199 44.4553 103.247 45.0509C103.656 45.1626 104.001 45.3953 104.28 45.7489C104.559 46.1026 104.699 46.4841 104.699 46.8936V51.3049C104.699 51.9377 104.457 52.4403 103.973 52.8125C103.638 53.1104 103.21 53.2593 102.689 53.2593H102.298C98.3145 52.4031 94.9455 50.4673 92.1908 47.452C88.6543 43.4688 86.8861 38.4992 86.8861 32.543C86.8861 26.5869 88.6543 21.6172 92.1908 17.634C94.9455 14.5815 98.3145 12.6644 102.298 11.8826C102.893 11.7337 103.452 11.864 103.973 12.2735ZM158.695 37.0101L167.127 49.9089C167.536 50.579 167.555 51.2491 167.182 51.9191C167.034 52.2169 166.801 52.4589 166.485 52.645C166.168 52.8312 165.842 52.9242 165.507 52.9242H160.426C160.091 52.9242 159.775 52.8405 159.477 52.6729C159.179 52.5054 158.956 52.2914 158.807 52.0308L150.319 38.5736H140.38V50.9699C140.38 51.491 140.184 51.947 139.793 52.3379C139.403 52.7288 138.947 52.9242 138.425 52.9242H134.182C133.661 52.9242 133.204 52.7288 132.814 52.3379C132.423 51.947 132.227 51.491 132.227 50.9699V32.5989C132.227 32.0777 132.423 31.6217 132.814 31.2308C133.204 30.8399 133.661 30.6445 134.182 30.6445H151.38C154.656 30.6445 156.834 29.7138 157.913 27.8525C158.285 27.2569 158.472 26.4007 158.472 25.284C158.472 23.5343 157.895 22.157 156.741 21.1519C155.549 20.0723 153.837 19.5325 151.603 19.5325H134.182C133.661 19.5325 133.204 19.3371 132.814 18.9462C132.423 18.5554 132.227 18.0993 132.227 17.5782V13.5578C132.227 13.0366 132.423 12.5806 132.814 12.1897C133.204 11.7989 133.661 11.6034 134.182 11.6034H152.106C156.461 11.6034 159.942 12.8319 162.548 15.2888C165.265 17.7457 166.624 21.0774 166.624 25.284C166.624 28.0015 166.028 30.3188 164.837 32.2359C163.646 34.153 161.915 35.6142 159.644 36.6193L158.695 37.0101ZM209.062 12.6644C209.248 12.9994 209.332 13.353 209.313 13.7253C209.294 14.0976 209.173 14.4326 208.95 14.7304L193.483 37.066V51.4166C193.483 51.9377 193.287 52.3938 192.896 52.7846C192.505 53.1755 192.049 53.3709 191.528 53.3709H187.229C186.67 53.3709 186.196 53.1755 185.805 52.7846C185.414 52.3938 185.218 51.9377 185.218 51.4166V35.0558C185.218 34.6835 185.349 34.3113 185.609 33.939L200.518 12.441C200.704 12.1804 200.937 11.9757 201.216 11.8268C201.496 11.6779 201.803 11.6034 202.138 11.6034H207.331C207.703 11.6034 208.047 11.6965 208.364 11.8826C208.68 12.0687 208.913 12.3293 209.062 12.6644ZM185.553 24.9489C185.405 25.284 185.172 25.5445 184.856 25.7307C184.539 25.9168 184.195 26.0099 183.822 26.0099H178.629C177.959 26.0099 177.401 25.7307 176.954 25.1723L169.695 14.7304C169.509 14.4326 169.407 14.0976 169.388 13.7253C169.37 13.353 169.435 12.9994 169.584 12.6644C169.732 12.3293 169.965 12.0687 170.282 11.8826C170.598 11.6965 170.942 11.6034 171.315 11.6034H176.563C177.196 11.6034 177.736 11.8826 178.183 12.441L185.442 22.8829C185.628 23.1807 185.73 23.5157 185.749 23.888C185.768 24.2602 185.702 24.6139 185.553 24.9489ZM232.682 11.6034C237.111 11.6034 240.685 12.8784 243.403 15.4284C246.12 17.9784 247.479 21.3752 247.479 25.619C247.479 29.8628 246.139 33.2503 243.458 35.7817C240.778 38.313 237.186 39.5787 232.682 39.5787H222.016V50.9699C222.016 51.491 221.821 51.947 221.43 52.3379C221.039 52.7288 220.583 52.9242 220.062 52.9242H215.818C215.297 52.9242 214.841 52.7288 214.45 52.3379C214.059 51.947 213.864 51.491 213.864 50.9699V33.6598C213.864 33.1386 214.059 32.6826 214.45 32.2917C214.841 31.9009 215.297 31.7054 215.818 31.7054H232.347C234.841 31.7054 236.628 31.1657 237.707 30.0861C238.787 29.1182 239.326 27.6478 239.326 25.6748C239.326 23.7019 238.768 22.1849 237.651 21.124C236.534 20.063 234.766 19.5325 232.347 19.5325H215.818C215.297 19.5325 214.841 19.3371 214.45 18.9462C214.059 18.5554 213.864 18.0993 213.864 17.5782V13.5578C213.864 13.0366 214.059 12.5806 214.45 12.1897C214.841 11.7989 215.297 11.6034 215.818 11.6034H232.682ZM257.139 11.6034C257.697 11.6034 258.172 11.7989 258.563 12.1897C258.954 12.5806 259.149 13.0552 259.149 13.6136V17.6899C259.149 18.2483 258.954 18.7229 258.563 19.1138C258.172 19.5046 257.697 19.7001 257.139 19.7001H251.388C250.866 19.7001 250.41 19.5046 250.02 19.1138C249.629 18.7229 249.433 18.2483 249.433 17.6899V13.6136C249.433 13.0552 249.629 12.5806 250.02 12.1897C250.41 11.7989 250.866 11.6034 251.388 11.6034H257.139ZM282.099 11.6034C282.62 11.6034 283.076 11.7989 283.467 12.1897C283.858 12.5806 284.053 13.0552 284.053 13.6136V17.6899C284.053 18.2483 283.858 18.7229 283.467 19.1138C283.076 19.5046 282.62 19.7001 282.099 19.7001H270.875V51.4166C270.875 51.9377 270.68 52.3938 270.289 52.7846C269.898 53.1755 269.442 53.3709 268.921 53.3709H264.621C264.063 53.3709 263.588 53.1755 263.198 52.7846C262.807 52.3938 262.611 51.9377 262.611 51.4166V13.6136C262.611 13.0552 262.807 12.5806 263.198 12.1897C263.588 11.7989 264.063 11.6034 264.621 11.6034H282.099ZM305.551 12.0501C305.998 12.4224 306.221 12.9249 306.221 13.5578V17.7457C306.221 18.2296 306.082 18.6484 305.803 19.0021C305.523 19.3557 305.142 19.5884 304.658 19.7001C302.275 20.184 300.247 21.3194 298.571 23.1062C296.301 25.4887 295.165 28.5878 295.165 32.4034C295.165 36.2191 296.301 39.3368 298.571 41.7564C300.247 43.5061 302.275 44.6228 304.658 45.1068C305.142 45.2185 305.523 45.4511 305.803 45.8048C306.082 46.1584 306.221 46.5772 306.221 47.0611V51.2491C306.221 51.8447 305.998 52.3472 305.551 52.7567C305.142 53.0545 304.714 53.2034 304.267 53.2034H303.932C299.614 52.4961 295.91 50.5418 292.82 47.3403C288.949 43.3572 287.013 38.3968 287.013 32.4593C287.013 26.5217 288.949 21.5241 292.82 17.4665C295.835 14.3395 299.539 12.4038 303.932 11.6593C304.528 11.5476 305.067 11.6779 305.551 12.0501ZM323.085 17.4665C326.956 21.5241 328.892 26.5217 328.892 32.4593C328.892 38.3968 326.956 43.3572 323.085 47.3403C319.995 50.5418 316.291 52.4961 311.973 53.2034H311.638C311.191 53.2034 310.763 53.0545 310.354 52.7567C309.907 52.3472 309.683 51.8447 309.683 51.2491V47.0611C309.683 46.5772 309.823 46.1584 310.102 45.8048C310.381 45.4511 310.763 45.2185 311.247 45.1068C313.629 44.6228 315.658 43.5061 317.333 41.7564C319.604 39.3368 320.74 36.2191 320.74 32.4034C320.74 28.5878 319.604 25.4887 317.333 23.1062C315.658 21.3194 313.629 20.184 311.247 19.7001C310.763 19.5884 310.381 19.3557 310.102 19.0021C309.823 18.6484 309.683 18.2296 309.683 17.7457V13.5578C309.683 12.9249 309.916 12.4224 310.381 12.0501C310.847 11.6779 311.377 11.5476 311.973 11.6593C316.365 12.4038 320.069 14.3395 323.085 17.4665ZM354.41 11.6034C358.84 11.6034 362.414 12.8784 365.131 15.4284C367.849 17.9784 369.208 21.3752 369.208 25.619C369.208 29.8628 367.868 33.2503 365.187 35.7817C362.507 38.313 358.915 39.5787 354.41 39.5787H343.745V50.9699C343.745 51.491 343.55 51.947 343.159 52.3379C342.768 52.7288 342.312 52.9242 341.791 52.9242H337.547C337.026 52.9242 336.57 52.7288 336.179 52.3379C335.788 51.947 335.593 51.491 335.593 50.9699V33.6598C335.593 33.1386 335.788 32.6826 336.179 32.2917C336.57 31.9009 337.026 31.7054 337.547 31.7054H354.075C356.57 31.7054 358.356 31.1657 359.436 30.0861C360.515 29.1182 361.055 27.6478 361.055 25.6748C361.055 23.7019 360.497 22.1849 359.38 21.124C358.263 20.063 356.495 19.5325 354.075 19.5325H337.547C337.026 19.5325 336.57 19.3371 336.179 18.9462C335.788 18.5554 335.593 18.0993 335.593 17.5782V13.5578C335.593 13.0366 335.788 12.5806 336.179 12.1897C336.57 11.7989 337.026 11.6034 337.547 11.6034H354.41ZM381.101 28.1876C381.66 28.1876 382.125 28.383 382.497 28.7739C382.87 29.1648 383.056 29.6394 383.056 30.1978V51.0815C383.056 51.6027 382.87 52.0587 382.497 52.4496C382.125 52.8405 381.66 53.0359 381.101 53.0359H376.858C376.337 53.0359 375.88 52.8405 375.49 52.4496C375.099 52.0587 374.903 51.6027 374.903 51.0815V30.1978C374.903 29.6394 375.099 29.1648 375.49 28.7739C375.88 28.383 376.337 28.1876 376.858 28.1876H381.101ZM381.101 11.6034C381.66 11.6034 382.125 11.7989 382.497 12.1897C382.87 12.5806 383.056 13.0366 383.056 13.5578V23.888C383.056 24.4464 382.87 24.921 382.497 25.3119C382.125 25.7027 381.66 25.8982 381.101 25.8982H376.858C376.337 25.8982 375.88 25.7027 375.49 25.3119C375.099 24.921 374.903 24.4464 374.903 23.888V13.5578C374.903 13.0366 375.099 12.5806 375.49 12.1897C375.88 11.7989 376.337 11.6034 376.858 11.6034H381.101ZM428.844 50.2998C429.104 50.8954 429.039 51.5003 428.648 52.1146C428.257 52.7288 427.727 53.0359 427.057 53.0359H389.868C389.533 53.0359 389.217 52.9521 388.919 52.7846C388.621 52.6171 388.398 52.4031 388.249 52.1425C387.839 51.5469 387.783 50.9326 388.081 50.2998L389.812 46.2236C389.961 45.8513 390.203 45.5535 390.538 45.3301C390.873 45.1068 391.227 44.9951 391.599 44.9951H417.62L408.462 23.1062L400.98 40.9747C400.831 41.347 400.599 41.6355 400.282 41.8402C399.966 42.0449 399.603 42.1473 399.193 42.1473H394.503C393.795 42.1473 393.237 41.8495 392.828 41.2539C392.679 40.9933 392.586 40.6955 392.548 40.3605C392.511 40.0254 392.548 39.709 392.66 39.4112L403.995 12.8319C404.144 12.4596 404.377 12.1618 404.693 11.9385C405.01 11.7151 405.373 11.6034 405.782 11.6034H411.143C411.552 11.6034 411.915 11.7151 412.232 11.9385C412.548 12.1618 412.781 12.4596 412.93 12.8319L428.844 50.2998Z" fill="white"/>
    </g>
    <defs>
        <linearGradient id="paint0_linear_14_96" x1="0" y1="-1.52588e-05" x2="63.3544" y2="-1.52588e-05" gradientUnits="userSpaceOnUse">
            <stop stop-color="#00FF8F"/>
            <stop offset="0.5" stop-color="#00E0FF"/>
            <stop offset="1" stop-color="#00A1FF"/>
        </linearGradient>
        <linearGradient id="paint1_linear_14_96" x1="3.32007" y1="3.28607" x2="60.0823" y2="3.28607" gradientUnits="userSpaceOnUse">
            <stop stop-color="#00FF8F"/>
            <stop offset="0.5" stop-color="#00E0FF"/>
            <stop offset="1" stop-color="#00A1FF"/>
        </linearGradient>
        <linearGradient id="paint2_linear_14_96" x1="30.8975" y1="41.7165" x2="33.3829" y2="41.7165" gradientUnits="userSpaceOnUse">
            <stop stop-color="#00FF8F"/>
            <stop offset="0.5" stop-color="#00E0FF"/>
            <stop offset="1" stop-color="#00A1FF"/>
        </linearGradient>
        <linearGradient id="paint3_linear_14_96" x1="30.8972" y1="14.6203" x2="33.383" y2="14.6203" gradientUnits="userSpaceOnUse">
            <stop stop-color="#00FF8F"/>
            <stop offset="0.5" stop-color="#00E0FF"/>
            <stop offset="1" stop-color="#00A1FF"/>
        </linearGradient>
        <linearGradient id="paint4_linear_14_96" x1="20.5936" y1="20.1063" x2="40.7558" y2="20.1063" gradientUnits="userSpaceOnUse">
            <stop stop-color="#00FF8F"/>
            <stop offset="0.5" stop-color="#00E0FF"/>
            <stop offset="1" stop-color="#00A1FF"/>
        </linearGradient>
        <linearGradient id="paint5_linear_14_96" x1="20.2526" y1="19.7582" x2="41.0926" y2="19.7582" gradientUnits="userSpaceOnUse">
            <stop stop-color="#00FF8F"/>
            <stop offset="0.5" stop-color="#00E0FF"/>
            <stop offset="1" stop-color="#00A1FF"/>
        </linearGradient>
        <clipPath id="clip0_14_96">
            <rect width="429" height="63.3544" fill="white"/>
        </clipPath>
    </defs>
</svg>
